<?xml version="1.0" encoding="utf-8"?>
<!-- Generator: Adobe Illustrator 24.1.0, SVG Export Plug-In . SVG Version: 6.00 Build 0)  -->
<svg version="1.1" id="Capa_1" xmlns="http://www.w3.org/2000/svg" xmlns:xlink="http://www.w3.org/1999/xlink" x="0px" y="0px"
	 viewBox="0 0 861 350.3" style="enable-background:new 0 0 861 350.3;" xml:space="preserve">
<style type="text/css">
	.st0{fill:#95A0A3;}
</style>
<g id="Reloj" transform="translate(148.68 0) scale(0.29)">
	<g>
		<g>
			<path class="st0" d="M1340,501.3l-68.9,68.9c-8.5-1.2-18.1,1.2-24.2,7.2c-10.9,10.9-10.9,27.8,0,38.7c10.9,10.9,27.8,10.9,38.7,0
				c7.2-6,9.7-15.7,7.2-24.2l68.9-68.9c6-6,6-15.7,0-21.7C1355.7,495.3,1346,495.3,1340,501.3z"/>
			<path class="st0" d="M1565.8,538.7L1565.8,538.7c-2.4-20.5-4.8-41.1-9.7-61.6l0,0c-4.8-20.5-9.7-39.9-15.7-60.4l0,0
				c-6-19.3-13.3-38.7-21.7-58l0,0c-16.9-37.4-37.4-73.7-61.6-107.5l0,0c-12.1-16.9-25.4-32.6-38.7-48.3s-29-30.2-43.5-43.5l0,0
				c-15.7-13.3-31.4-26.6-48.3-38.7l0,0c-33.8-24.2-70.1-44.7-107.5-61.6l0,0c-19.3-8.5-38.7-15.7-58-21.7l0,0
				c-19.3-6-39.9-12.1-60.4-15.7l0,0c-20.5-4.8-41.1-7.2-61.6-9.7l0,0c-41.1-4.8-82.1-4.8-123.2,0l0,0c-20.5,2.4-41.1,4.8-61.6,9.7
				l0,0c-20.5,4.8-39.9,9.7-60.4,15.7l0,0c-19.3,6-38.7,13.3-58,21.7l0,0c-36.2,16.9-72.5,37.4-106.3,62.8l0,0
				c-16.9,12.1-32.6,25.4-48.3,38.7l0,0c-15.7,13.3-30.2,29-43.5,43.5l0,0c-13.3,15.7-26.6,31.4-38.7,48.3l0,0
				c-24.2,33.8-44.7,70.1-61.6,107.5l0,0c-8.5,18.1-15.7,38.7-21.7,58l0,0c-6,19.3-12.1,39.9-15.7,59.2l0,0
				c-4.8,20.5-7.2,41.1-9.7,61.6l0,0c-3.6,20.5-4.8,41.1-4.8,61.6s1.2,41.1,3.6,61.6l0,0c2.4,20.5,4.8,41.1,9.7,61.6l0,0
				c4.8,20.5,9.7,39.9,15.7,60.4l0,0c6,19.3,13.3,38.7,21.7,58l0,0c16.9,37.4,37.4,73.7,61.6,107.5l0,0
				c12.1,16.9,25.4,32.6,38.7,48.3l0,0c13.3,15.7,29,30.2,43.5,43.5l0,0c15.7,13.3,31.4,26.6,48.3,38.7l0,0
				c33.8,24.2,70.1,44.7,107.5,61.6l0,0c19.3,8.5,38.7,15.7,58,21.7l0,0c19.3,6,39.9,12.1,60.4,15.7c20.5,4.8,41.1,7.2,61.6,9.7l0,0
				c20.5,2.4,41.1,3.6,61.6,3.6c20.5,0,41.1-1.2,61.6-3.6l0,0c20.5-2.4,41.1-4.8,61.6-9.7l0,0c20.5-4.8,39.9-9.7,60.4-15.7l0,0
				c19.3-6,38.7-13.3,58-21.7l0,0c37.4-16.9,73.7-37.4,107.5-61.6l0,0c16.9-12.1,32.6-25.4,48.3-38.7l0,0
				c15.7-13.3,30.2-29,43.5-43.5l0,0c13.3-15.7,26.6-31.4,38.7-48.3l0,0c24.2-33.8,44.7-70.1,61.6-107.5l0,0
				c8.5-19.3,15.7-38.7,21.7-58l0,0c6-19.3,12.1-39.9,15.7-60.4l0,0c4.8-20.5,7.2-41.1,9.7-61.6l0,0c2.4-20.5,3.6-41.1,3.6-61.6
				C1569.5,579.8,1568.3,559.3,1565.8,538.7z M1477.7,616.1h68.9c0,10.9-1.2,21.7-1.2,32.6l-19.3-2.4c-6-1.2-12.1,3.6-12.1,9.7v1.2
				c0,6,4.8,10.9,9.7,10.9l19.3,2.4c-1.2,12.1-3.6,24.2-6,37.4l-18.1-3.6c-6-1.2-12.1,2.4-13.3,8.5c0,1.2,0,1.2,0,2.4
				c0,4.8,3.6,9.7,8.5,10.9l18.1,3.6c-2.4,12.1-6,24.2-9.7,36.2l-18.1-6c-6-2.4-12.1,1.2-14.5,7.2c0,1.2,0,2.4,0,3.6
				c0,4.8,2.4,9.7,7.2,10.9l18.1,6c-3.6,12.1-8.5,23-13.3,35l-16.9-8.5c-6-2.4-12.1,0-14.5,6c-1.2,1.2-1.2,2.4-1.2,4.8
				c0,4.8,2.4,8.5,7.2,9.7l16.9,7.2c-4.8,9.7-9.7,19.3-14.5,29l-60.4-35c-7.2-4.8-16.9-1.2-21.7,6s-1.2,16.9,6,21.7l59.2,35
				c-6,9.7-12.1,18.1-18.1,27.8l-14.5-12.1c-4.8-3.6-12.1-2.4-15.7,2.4c-1.2,2.4-2.4,4.8-2.4,6c0,3.6,1.2,7.2,4.8,9.7l15.7,10.9
				c-7.2,9.7-15.7,19.3-23,29l-14.5-12.1c-4.8-3.6-12.1-3.6-15.7,1.2c-2.4,2.4-2.4,4.8-2.4,7.2c0,3.6,1.2,6,3.6,8.5l14.5,12.1
				c-8.5,8.5-16.9,18.1-26.6,26.6l-12.1-14.5c-3.6-4.8-10.9-4.8-15.7-1.2c-2.4,2.4-3.6,4.8-3.6,8.5c0,2.4,1.2,4.8,2.4,7.2l12.1,14.5
				c-9.7,8.5-19.3,15.7-29,23l-10.9-15.7c-3.6-4.8-10.9-6-15.7-2.4c-2.4,2.4-4.8,6-4.8,9.7c0,2.4,1.2,4.8,2.4,6l10.9,15.7
				c-8.5,6-18.1,12.1-27.8,18.1l-35-59.2c-4.8-7.2-14.5-9.7-21.7-6c-7.2,4.8-9.7,13.3-6,21.7l35,60.4c-9.7,4.8-19.3,9.7-29,14.5
				l-7.2-16.9c-2.4-6-9.7-8.5-14.5-6c-3.6,2.4-6,6-6,9.7c0,1.2,0,3.6,1.2,4.8l7.2,16.9c-10.9,4.8-23,9.7-35,13.3l-6-16.9
				c-2.4-6-8.5-9.7-14.5-7.2c-4.8,1.2-7.2,6-7.2,10.9c0,1.2,0,2.4,0,3.6l6,18.1c-12.1,3.6-24.2,7.2-36.2,9.7l-3.6-18.1
				c-1.2-6-7.2-9.7-13.3-8.5c-4.8,1.2-8.5,6-8.5,10.9c0,1.2,0,1.2,0,2.4l3.6,18.1c-12.1,2.4-24.2,4.8-37.4,6l-2.4-19.3
				c-1.2-6-6-10.9-12.1-9.7c-6,1.2-9.7,6-9.7,10.9v1.2l2.4,18.1c-10.9,1.2-21.7,1.2-32.6,1.2v-68.9c0-8.5-7.2-15.7-15.7-15.7l0,0
				c-8.5,0-15.7,7.2-15.7,15.7v68.9c-10.9,0-21.7-1.2-32.6-1.2l2.4-19.3v-1.2c0-6-4.8-10.9-9.7-10.9c-6-1.2-12.1,3.6-12.1,9.7
				l-2.4,19.3c-12.1-1.2-24.2-3.6-36.2-6l3.6-18.1c0-1.2,0-1.2,0-2.4c0-4.8-3.6-9.7-8.5-10.9c-6-1.2-12.1,2.4-13.3,8.5l-3.6,18.1
				c-12.1-2.4-24.2-6-36.2-9.7l6-18.1c0-1.2,0-2.4,0-3.6c0-4.8-2.4-9.7-7.2-10.9c-6-2.4-12.1,1.2-14.5,7.2l-6,18.1
				c-12.1-3.6-23-8.5-35-13.3l7.2-16.9c1.2-1.2,1.2-2.4,1.2-4.8c0-4.8-2.4-8.5-6-9.7c-6-2.4-12.1,0-14.5,6l-8.5,16.9
				c-9.7-4.8-19.3-9.7-29-14.5l35-60.4c4.8-7.2,1.2-16.9-6-21.7c-7.2-4.8-16.9-1.2-21.7,6l-35,60.4c-9.7-6-18.1-12.1-27.8-18.1
				l10.9-15.7c1.2-2.4,2.4-4.8,2.4-6c0-3.6-1.2-7.2-4.8-9.7c-4.8-3.6-12.1-2.4-15.7,2.4l-10.9,15.7c-9.7-7.2-19.3-15.7-29-23
				l12.1-14.5c2.4-2.4,2.4-4.8,2.4-7.2c0-3.6-1.2-6-3.6-8.5c-4.8-3.6-12.1-3.6-15.7,1.2l-12.1,14.5c-9.7-8.5-18.1-16.9-26.6-26.6
				l14.5-12.1c2.4-2.4,3.6-4.8,3.6-8.5c0-2.4-1.2-4.8-2.4-7.2c-3.6-4.8-10.9-4.8-15.7-1.2l-14.5,12.1c-8.5-9.7-15.7-19.3-23-29
				l15.7-10.9c2.4-2.4,4.8-6,4.8-8.5c0-2.4-1.2-4.8-2.4-6c-3.6-4.8-10.9-6-15.7-2.4l-15.7,9.7c-6-8.5-12.1-18.1-18.1-27.8l60.4-35
				c7.2-4.8,9.7-14.5,6-21.7c-4.8-7.2-13.3-9.7-21.7-6l-60.4,35c-4.8-9.7-10.9-19.3-14.5-29l16.9-7.2c3.6-2.4,7.2-6,7.2-9.7
				c0-1.2,0-3.6-1.2-4.8c-2.4-6-8.5-8.5-14.5-6l-16.9,7.2c-4.8-10.9-9.7-23-13.3-35l16.9-4.8c4.8-1.2,7.2-6,7.2-10.9
				c0-1.2,0-2.4,0-3.6c-2.4-6-8.5-9.7-14.5-7.2l-18.1,6c-3.6-12.1-7.2-24.2-9.7-36.2L440,726c4.8-1.2,8.5-6,8.5-10.9
				c0-1.2,0-1.2,0-2.4c-1.2-6-7.2-9.7-13.3-8.5l-18.1,3.6c-2.4-12.1-4.8-24.2-6-36.2l19.3-2.4c6,0,9.7-6,9.7-10.9v-1.2
				c-1.2-6-6-10.9-12.1-9.7l-18.1,1.2c-1.2-10.9-1.2-21.7-1.2-32.6h68.9c8.5,0,15.7-7.2,15.7-15.7c0-8.5-7.2-15.7-15.7-15.7h-68.9
				c0-10.9,1.2-21.7,1.2-32.6l19.3,2.4c6,1.2,12.1-3.6,12.1-9.7v-1.2c0-6-4.8-10.9-9.7-10.9l-19.3-2.4c1.2-12.1,3.6-24.2,6-36.2
				l18.1,3.6c6,1.2,12.1-2.4,13.3-8.5c0-1.2,0-1.2,0-2.4c0-4.8-3.6-9.7-8.5-10.9l-18.1-3.6c2.4-12.1,6-24.2,9.7-36.2l18.1,6
				c6,2.4,12.1-1.2,14.5-7.2c0-1.2,0-2.4,0-3.6c0-4.8-2.4-9.7-7.2-10.9l-18.1-6c3.6-12.1,8.5-23,13.3-35l16.9,7.2
				c6,2.4,12.1,0,14.5-6c1.2-1.2,1.2-3.6,1.2-4.8c0-4.8-2.4-8.5-6-9.7l-18.1-7.2c4.8-9.7,9.7-19.3,14.5-29l60.4,35
				c2.4,1.2,4.8,2.4,7.2,2.4c4.8,0,10.9-2.4,13.3-7.2c4.8-7.2,1.2-16.9-6-21.7l-60.4-35c6-9.7,12.1-18.1,18.1-27.8l15.7,10.9
				c4.8,3.6,12.1,2.4,15.7-2.4c1.2-2.4,2.4-4.8,2.4-6c0-3.6-1.2-7.2-4.8-9.7l-15.7-10.9c7.2-9.7,15.7-19.3,23-29l14.5,12.1
				c4.8,3.6,12.1,3.6,15.7-1.2c2.4-2.4,2.4-4.8,2.4-7.2c0-3.6-1.2-6-3.6-8.5l-14.5-12.1c8.5-9.7,16.9-18.1,26.6-26.6l12.1,14.5
				c3.6,4.8,10.9,4.8,15.7,1.2c2.4-2.4,3.6-4.8,3.6-8.5c0-2.4-1.2-4.8-2.4-7.2l-12.1-14.5c9.7-8.5,19.3-15.7,29-23l10.9,15.7
				c3.6,4.8,10.9,6,15.7,2.4c2.4-2.4,4.8-6,4.8-9.7c0-2.4-1.2-4.8-2.4-6l-9.7-16.9c8.5-6,18.1-12.1,27.8-18.1l35,60.4
				c2.4,4.8,8.5,7.2,13.3,7.2c2.4,0,4.8-1.2,7.2-2.4c7.2-4.8,9.7-13.3,6-21.7l-35-60.4c9.7-4.8,19.3-10.9,29-14.5l7.2,16.9
				c2.4,6,9.7,8.5,14.5,6c3.6-2.4,6-6,6-9.7c0-1.2,0-3.6-1.2-4.8l-7.2-16.9c10.9-4.8,23-9.7,35-13.3l7.2,18.1
				c2.4,6,8.5,9.7,14.5,7.2c4.8-1.2,7.2-6,7.2-10.9c0-1.2,0-2.4,0-3.6l-6-18.1c12.1-3.6,24.2-7.2,36.2-9.7l3.6,18.1
				c1.2,6,7.2,9.7,13.3,8.5c4.8-1.2,8.5-6,8.5-10.9c0-1.2,0-1.2,0-2.4l-3.6-18.1c12.1-2.4,24.2-4.8,36.2-6l2.4,19.3
				c1.2,6,6,10.9,12.1,9.7c6-1.2,9.7-6,9.7-10.9v-1.2l-1.2-18.1c10.9-1.2,21.7-1.2,32.6-1.2v68.9c0,8.5,7.2,15.7,15.7,15.7
				c8.5,0,15.7-7.2,15.7-15.7V31.4c10.9,0,21.7,1.2,32.6,1.2l-2.4,19.3v1.2c0,6,4.8,10.9,9.7,10.9c6,1.2,12.1-3.6,12.1-9.7l2.4-19.3
				c12.1,1.2,24.2,3.6,37.4,6l-3.6,18.1c0,1.2,0,1.2,0,2.4c0,4.8,3.6,9.7,8.5,10.9c6,1.2,12.1-2.4,13.3-8.5l3.6-18.1
				c12.1,2.4,24.2,6,36.2,9.7l-6,18.1c0,1.2,0,2.4,0,3.6c0,4.8,2.4,9.7,7.2,10.9c6,2.4,12.1-1.2,14.5-7.2l6-18.1
				c12.1,3.6,23,8.5,35,13.3l-8.5,16.9c-1.2,1.2-1.2,3.6-1.2,4.8c0,4.8,2.4,8.5,6,9.7c6,2.4,12.1,0,14.5-6l8.5-16.9
				c9.7,4.8,19.3,9.7,29,14.5l-35,60.4c-4.8,7.2-1.2,16.9,6,21.7c2.4,1.2,4.8,2.4,7.2,2.4c4.8,0,10.9-2.4,13.3-7.2l35-60.4
				c9.7,6,18.1,12.1,27.8,18.1l-10.9,14.5c-1.2,2.4-2.4,4.8-2.4,6c0,3.6,1.2,7.2,4.8,9.7c4.8,3.6,12.1,2.4,15.7-2.4l10.9-15.7
				c9.7,7.2,19.3,15.7,29,23l-12.1,14.5c-2.4,2.4-2.4,4.8-2.4,7.2c0,3.6,1.2,6,3.6,8.5c4.8,3.6,12.1,3.6,15.7-1.2l12.1-14.5
				c8.5,8.5,18.1,16.9,26.6,26.6l-14.5,12.1c-1.2,3.6-2.4,7.2-2.4,9.7s1.2,4.8,2.4,7.2c3.6,4.8,10.9,4.8,15.7,1.2l14.5-12.1
				c8.5,9.7,15.7,19.3,23,29l-15.7,10.9c-2.4,2.4-4.8,6-4.8,9.7c0,2.4,1.2,4.8,2.4,6c3.6,4.8,10.9,6,15.7,2.4l15.7-10.9
				c6,8.5,12.1,18.1,18.1,27.8l-60.4,35c-7.2,4.8-9.7,13.3-6,21.7c2.4,4.8,8.5,7.2,13.3,7.2c2.4,0,4.8-1.2,7.2-2.4l60.4-35
				c4.8,9.7,9.7,19.3,14.5,29l-16.9,7.2c-3.6,2.4-6,6-6,9.7c0,1.2,0,3.6,1.2,4.8c2.4,6,9.7,8.5,14.5,6l16.9-7.2
				c4.8,10.9,9.7,23,13.3,35l-16.9,4.8c-4.8,1.2-7.2,6-7.2,10.9c0,1.2,0,2.4,0,3.6c2.4,6,8.5,9.7,14.5,7.2l18.1-6
				c3.6,12.1,7.2,24.2,9.7,36.2l-18.1,3.6c-4.8,1.2-8.5,6-8.5,10.9c0,1.2,0,1.2,0,2.4c1.2,6,7.2,9.7,13.3,8.5l18.1-3.6
				c2.4,12.1,4.8,24.2,6,36.2l-19.3,2.4c-6,1.2-9.7,6-9.7,10.9v1.2c1.2,6,6,10.9,12.1,9.7l18.1-1.2c1.2,10.9,1.2,21.7,2.4,32.6
				h-68.9l0,0c-8.5,0-15.7,7.2-15.7,15.7C1463.2,608.8,1469.2,616.1,1477.7,616.1z"/>
			<path class="st0" d="M709.4,573.8v-97.8c0-8.5-7.2-15.7-15.7-15.7c-8.5,0-15.7,7.2-15.7,15.7v97.8c-7.2,4.8-12.1,13.3-12.1,23
				c0,15.7,12.1,27.8,27.8,27.8c15.7,0,27.8-12.1,27.8-27.8C721.5,587.1,716.7,578.6,709.4,573.8z"/>
			<path class="st0" d="M976.4,727.2c-93,0-167.9,76.1-167.9,167.9c0,93,76.1,167.9,167.9,167.9c93,0,167.9-76.1,167.9-167.9
				C1144.3,803.3,1069.4,727.2,976.4,727.2z M976.4,1042.5c-80.9,0-146.2-65.2-146.2-146.2s65.2-146.2,146.2-146.2
				c80.9,0,146.2,65.2,146.2,146.2C1122.5,976,1056.1,1042.5,976.4,1042.5z"/>
			<path class="st0" d="M972.7,868.5l-65.2-71.3c-6-6-15.7-7.2-21.7-1.2c-6,6-7.2,15.7-1.2,21.7l65.2,71.3c-2.4,8.5,0,18.1,6,25.4
				c10.9,10.9,27.8,12.1,38.7,1.2c10.9-9.7,12.1-27.8,1.2-38.7C990.9,869.7,982.4,867.3,972.7,868.5z"/>
			<path class="st0" d="M1312.2,434.9l66.4-38.7c13.3-7.2,16.9-24.2,9.7-36.2c-7.2-13.3-24.2-16.9-36.2-9.7L989.6,562.9L986,130.5
				c0-3.6-3.6-6-7.2-6s-7.2,2.4-7.2,6l-4.8,431.2L705.8,391.4c-12.1-8.5-29-4.8-37.4,7.2c-6,9.7-6,21.7,1.2,30.2
				c-80.9,12.1-143.7,82.1-143.7,166.7c0,93,74.9,167.9,167.9,167.9s167.9-76.1,167.9-167.9c0-14.5-2.4-29-6-42.3l85.8,55.6
				c2.4,12.1,10.9,20.5,23,25.4l-8.5,78.5c0,1.2,0,3.6,1.2,4.8c1.2,1.2,3.6,2.4,4.8,2.4h30.2c2.4,0,3.6-1.2,4.8-2.4
				c1.2-1.2,2.4-3.6,1.2-4.8l-8.5-78.5c10.9-3.6,19.3-12.1,21.7-24.2l89.4-51.9c-2.4,12.1-4.8,24.2-4.8,37.4
				c0,93,76.1,167.9,167.9,167.9c93,0,167.9-76.1,167.9-167.9C1434.2,519.4,1382.2,455.4,1312.2,434.9z M693.7,742.9
				c-80.9,0-146.2-65.2-146.2-146.2s65.2-146.2,146.2-146.2c1.2,0,3.6,0,4.8,0l126.8,82.1c9.7,19.3,14.5,41.1,14.5,62.8
				C839.9,676.4,774.6,742.9,693.7,742.9z M977.6,622.1c-12.1,0-21.7-9.7-21.7-21.7c0-12.1,9.7-21.7,21.7-21.7
				c12.1,0,21.7,9.7,21.7,21.7C999.3,612.4,989.6,622.1,977.6,622.1z M1265.1,742.9c-80.9,0-146.2-65.2-146.2-146.2
				c0-19.3,3.6-37.4,10.9-54.4l153.4-90.6c72.5,8.5,128,70.1,128,145C1411.2,676.4,1346,742.9,1265.1,742.9z"/>
		</g>
	</g>
</g>
<g id="_x34_">
	<path d="M97.1,350.3v-20.6h13.7c11.1,0,20.6-2,28.5-5.9c7.8-4.3,11.8-14.1,11.8-29.4v-40.2H0V234L151.6,0h46.6v226.7H259v27.5
		h-60.8v40.2c0,15.4,3.9,25.2,11.8,29.4c7.8,3.9,17.3,5.9,28.5,5.9h6.4v20.6H97.1z M35.3,226.7h115.8v-90.8c0-9.5,0-20.1,0-31.9
		c0.3-12.1,0.8-24.2,1.5-36.3c0.7-12.1,1.3-23.2,2-33.4c-1.6,3.3-4.3,8.2-7.8,14.7c-3.6,6.5-7.7,13.7-12.3,21.6
		c-4.6,7.5-9,14.9-13.2,22.1c-4.3,6.9-7.8,12.6-10.8,17.2L35.3,226.7z"/>
</g>
<g id="_x34__1_">
	<path d="M699.1,350.3v-20.6h13.7c11.1,0,20.6-2,28.5-5.9c7.8-4.3,11.8-14.1,11.8-29.4v-40.2H602V234L753.6,0h46.6v226.7H861v27.5
		h-60.8v40.2c0,15.4,3.9,25.2,11.8,29.4c7.8,3.9,17.3,5.9,28.5,5.9h6.4v20.6H699.1z M637.3,226.7h115.8v-90.8c0-9.5,0-20.1,0-31.9
		c0.3-12.1,0.8-24.2,1.5-36.3c0.7-12.1,1.3-23.2,2-33.4c-1.6,3.3-4.3,8.2-7.8,14.7s-7.7,13.7-12.3,21.6c-4.6,7.5-9,14.9-13.2,22.1
		c-4.3,6.9-7.8,12.6-10.8,17.2L637.3,226.7z"/>
</g>
</svg>
