<?xml version="1.0" encoding="utf-8"?>
<!-- Generator: Adobe Illustrator 24.1.0, SVG Export Plug-In . SVG Version: 6.00 Build 0)  -->
<svg version="1.1" id="Capa_1" xmlns="http://www.w3.org/2000/svg" xmlns:xlink="http://www.w3.org/1999/xlink" x="0px" y="0px"
	 viewBox="0 0 64 64" style="enable-background:new 0 0 64 64;" xml:space="preserve">
<style type="text/css">
	.st0{fill:#FFFFFF;}
	.st1{fill:#585E60;}
</style>
<circle id="fondo" class="st0" cx="32" cy="32" r="32"/>
<g id="Reloj" transform="translate(148.68 0) scale(0.29)">
	<g>
		<g>
			<path class="st1" d="M-348.1,95.5l-10.4,10.2c-1.3-0.2-2.7,0.1-3.7,1.1c-1.6,1.6-1.6,4.2,0,5.8c1.6,1.6,4.2,1.6,5.8,0
				c1-1,1.4-2.4,1.2-3.7l10.4-10.2c0.9-0.9,0.9-2.4,0-3.3S-347.2,94.5-348.1,95.5z"/>
			<path class="st1" d="M-314.2,101.1L-314.2,101.1c-0.3-3.1-0.8-6.1-1.4-9.2l0,0c-0.6-3-1.4-6-2.4-9l0,0c-1-2.9-2.1-5.9-3.3-8.7
				l0,0c-2.5-5.6-5.6-11-9.3-16l0,0c-1.8-2.5-3.8-4.9-5.8-7.2c-2.1-2.3-4.3-4.5-6.6-6.6l0,0c-2.3-2-4.7-4-7.2-5.8l0,0
				c-5-3.6-10.4-6.8-16-9.3l0,0c-2.8-1.3-5.7-2.4-8.7-3.3l0,0c-2.9-1-5.9-1.8-9-2.4l0,0c-3-0.6-6.1-1.1-9.2-1.4l0,0
				c-6.1-0.6-12.4-0.6-18.5,0l0,0c-3.1,0.3-6.1,0.8-9.2,1.4l0,0c-3,0.6-6,1.4-9,2.4l0,0c-2.9,1-5.9,2.1-8.7,3.3l0,0
				c-5.6,2.5-11,5.6-16,9.3l0,0c-2.5,1.8-4.9,3.8-7.2,5.8l0,0c-2.3,2.1-4.5,4.3-6.6,6.6l0,0c-2.1,2.3-4,4.7-5.8,7.2l0,0
				c-3.6,5-6.8,10.4-9.3,16l0,0c-1.3,2.8-2.4,5.7-3.3,8.7l0,0c-1,2.9-1.8,5.9-2.4,9l0,0c-0.6,3-1.1,6.1-1.4,9.2l0,0
				c-0.3,3.1-0.5,6.2-0.5,9.3c0,3.1,0.2,6.2,0.5,9.3l0,0c0.3,3,0.8,6.1,1.4,9.2l0,0c0.6,3,1.4,6,2.4,9l0,0c1,2.9,2.1,5.9,3.3,8.7
				l0,0c2.5,5.6,5.6,11,9.3,16l0,0c1.8,2.5,3.8,4.9,5.8,7.2l0,0c2.1,2.3,4.3,4.5,6.6,6.6l0,0c2.3,2,4.7,4,7.2,5.8l0,0
				c5,3.6,10.4,6.8,16,9.3l0,0c2.8,1.2,5.7,2.4,8.7,3.3l0,0c2.9,1,6,1.8,9,2.4c3,0.6,6.1,1.1,9.2,1.4l0,0c3.1,0.3,6.2,0.5,9.3,0.5
				c3.1,0,6.2-0.2,9.2-0.5l0,0c3.1-0.3,6.1-0.8,9.2-1.4l0,0c3-0.6,6-1.4,9-2.4l0,0c2.9-1,5.9-2.1,8.7-3.3l0,0c5.6-2.5,11-5.6,16-9.3
				l0,0c2.5-1.8,4.9-3.8,7.2-5.8l0,0c2.3-2.1,4.5-4.3,6.6-6.6l0,0c2-2.3,4-4.7,5.8-7.2l0,0c3.6-5,6.8-10.4,9.3-16l0,0
				c1.3-2.8,2.4-5.7,3.3-8.7l0,0c1-2.9,1.8-6,2.4-9l0,0c0.6-3,1.1-6.1,1.4-9.2l0,0c0.3-3.1,0.5-6.2,0.5-9.3
				S-313.9,104.2-314.2,101.1z M-327.4,112.7h10.4c0,1.6-0.1,3.3-0.3,4.9l-2.8-0.3c-0.9-0.1-1.7,0.6-1.8,1.5c0,0.1,0,0.1,0,0.2
				c0,0.8,0.6,1.6,1.5,1.7l2.8,0.3c-0.2,1.8-0.5,3.7-0.9,5.5l-2.8-0.6c-0.9-0.2-1.8,0.4-2,1.3c0,0.1,0,0.2,0,0.3
				c0,0.8,0.5,1.5,1.3,1.6l2.8,0.6c-0.4,1.8-0.9,3.6-1.4,5.4l-2.7-0.9c-0.9-0.3-1.8,0.2-2.1,1.1c-0.1,0.2-0.1,0.3-0.1,0.5
				c0,0.7,0.5,1.4,1.2,1.6l2.7,0.9c-0.6,1.8-1.3,3.5-2,5.2l-2.6-1.2c-0.8-0.4-1.8,0-2.2,0.9c-0.1,0.2-0.1,0.5-0.1,0.7
				c0,0.6,0.4,1.3,1,1.5l2.6,1.2c-0.7,1.5-1.5,2.9-2.2,4.4l-9-5.2c-1.1-0.6-2.6-0.3-3.2,0.9c-0.6,1.1-0.3,2.6,0.9,3.2l9,5.2
				c-0.9,1.4-1.7,2.8-2.7,4.1l-2.3-1.7c-0.7-0.5-1.8-0.4-2.3,0.4c-0.2,0.3-0.3,0.6-0.3,1c0,0.5,0.2,1,0.7,1.4l2.3,1.7
				c-1.1,1.5-2.3,2.9-3.5,4.3l-2.1-1.9c-0.7-0.6-1.7-0.6-2.4,0.1c-0.3,0.3-0.4,0.7-0.4,1.1c0,0.5,0.2,0.9,0.6,1.2l2.1,1.9
				c-1.3,1.4-2.6,2.7-3.9,3.9l-1.9-2.1c-0.6-0.7-1.7-0.7-2.4-0.1c-0.4,0.3-0.6,0.8-0.6,1.2s0.1,0.8,0.4,1.1l1.9,2.1
				c-1.4,1.2-2.8,2.4-4.3,3.5l-1.7-2.3c-0.5-0.7-1.6-0.9-2.3-0.4c-0.5,0.3-0.7,0.8-0.7,1.4c0,0.3,0.1,0.7,0.3,1l1.7,2.3
				c-1.3,0.9-2.7,1.8-4.1,2.7l-5.2-9c-0.6-1.1-2.1-1.5-3.2-0.9s-1.5,2.1-0.9,3.2l5.2,9c-1.4,0.8-2.9,1.5-4.4,2.2l-1.2-2.6
				c-0.4-0.8-1.4-1.2-2.2-0.8c-0.6,0.3-1,0.9-1,1.5c0,0.2,0,0.5,0.1,0.7l1.2,2.6c-1.7,0.7-3.5,1.4-5.2,2l-0.9-2.7
				c-0.3-0.9-1.2-1.4-2.1-1.1c-0.7,0.2-1.2,0.9-1.2,1.6c0,0.2,0,0.3,0.1,0.5l0.9,2.7c-1.8,0.5-3.6,1-5.4,1.4l-0.6-2.8
				c-0.2-0.9-1.1-1.5-2-1.3c-0.8,0.2-1.3,0.9-1.3,1.6c0,0.1,0,0.2,0,0.3l0.6,2.8c-1.8,0.3-3.7,0.6-5.5,0.9l-0.3-2.8
				c-0.1-0.9-0.9-1.6-1.8-1.5s-1.5,0.8-1.5,1.7c0,0.1,0,0.1,0,0.2l0.3,2.8c-1.6,0.1-3.3,0.2-4.9,0.3v-10.4c0-1.3-1-2.3-2.3-2.3l0,0
				c-1.3,0-2.3,1-2.3,2.3v10.4c-1.6,0-3.3-0.1-4.9-0.3l0.3-2.8c0-0.1,0-0.1,0-0.2c0-0.8-0.6-1.6-1.5-1.7c-0.9-0.1-1.7,0.6-1.8,1.5
				l-0.3,2.8c-1.8-0.2-3.7-0.5-5.5-0.9l0.6-2.8c0-0.1,0-0.2,0-0.3c0-0.8-0.5-1.5-1.3-1.6c-0.9-0.2-1.8,0.4-2,1.3l-0.6,2.8
				c-1.8-0.4-3.6-0.9-5.4-1.4l0.9-2.7c0.1-0.2,0.1-0.3,0.1-0.5c0-0.7-0.5-1.4-1.2-1.6c-0.9-0.3-1.8,0.2-2.1,1.1l-0.9,2.7
				c-1.8-0.6-3.5-1.3-5.2-2l1.2-2.6c0.1-0.2,0.1-0.5,0.1-0.7c0-0.6-0.4-1.3-1-1.5c-0.8-0.4-1.8,0-2.2,0.9l-1.2,2.6
				c-1.5-0.7-2.9-1.5-4.4-2.2l5.2-9c0.6-1.1,0.3-2.6-0.9-3.2c-1.1-0.6-2.6-0.3-3.2,0.9l-5.2,9c-1.4-0.9-2.8-1.7-4.1-2.7l1.7-2.3
				c0.2-0.3,0.3-0.6,0.3-1c0-0.5-0.2-1-0.7-1.4c-0.7-0.5-1.8-0.4-2.3,0.4l-1.7,2.3c-1.5-1.1-2.9-2.3-4.3-3.5l1.9-2.1
				c0.3-0.3,0.4-0.7,0.4-1.1c0-0.5-0.2-0.9-0.6-1.2c-0.7-0.6-1.7-0.6-2.4,0.1l-1.9,2.1c-1.4-1.3-2.7-2.6-3.9-4l2.1-1.9
				c0.4-0.3,0.6-0.8,0.6-1.2s-0.1-0.8-0.4-1.1c-0.6-0.7-1.7-0.7-2.4-0.1l-2.1,1.9c-1.2-1.4-2.4-2.8-3.5-4.3l2.3-1.7
				c0.5-0.3,0.7-0.8,0.7-1.4c0-0.3-0.1-0.7-0.3-1c-0.5-0.7-1.6-0.9-2.3-0.4l-2.3,1.7c-0.9-1.3-1.8-2.7-2.7-4.1l9-5.2
				c1.1-0.6,1.5-2.1,0.9-3.2c-0.6-1.1-2.1-1.5-3.2-0.9l-9,5.2c-0.8-1.4-1.5-2.9-2.2-4.4l2.6-1.2c0.6-0.3,1-0.9,1-1.5
				c0-0.2,0-0.5-0.1-0.7c-0.4-0.8-1.4-1.2-2.2-0.8l-2.6,1.1c-0.7-1.7-1.4-3.5-2-5.2l2.7-0.9c0.7-0.2,1.2-0.9,1.2-1.6
				c0-0.2,0-0.3-0.1-0.5c-0.3-0.9-1.2-1.4-2.1-1.1l-2.7,0.9c-0.5-1.8-1-3.6-1.4-5.4l2.8-0.6c0.8-0.2,1.3-0.9,1.3-1.6
				c0-0.1,0-0.2,0-0.3c-0.2-0.9-1.1-1.5-2-1.3l-2.8,0.6c-0.4-1.8-0.6-3.7-0.9-5.5l2.8-0.3c0.9-0.1,1.5-0.8,1.5-1.7
				c0-0.1,0-0.1,0-0.2c-0.1-0.9-0.9-1.6-1.8-1.5l-2.8,0.3c-0.1-1.6-0.2-3.3-0.3-4.9h10.4c1.3,0,2.3-1.1,2.3-2.3c0-1.3-1-2.3-2.3-2.3
				H-487c0-1.6,0.1-3.3,0.3-4.9l2.8,0.3c0.9,0.1,1.7-0.6,1.8-1.5c0-0.1,0-0.1,0-0.2c0-0.8-0.6-1.6-1.5-1.7l-2.8-0.3
				c0.2-1.8,0.5-3.7,0.9-5.5l2.8,0.6c0.9,0.2,1.8-0.4,2-1.3c0-0.1,0-0.2,0-0.3c0-0.8-0.5-1.5-1.3-1.6l-2.8-0.6
				c0.4-1.8,0.9-3.6,1.4-5.4l2.7,0.9c0.9,0.3,1.8-0.2,2.1-1.1c0.1-0.2,0.1-0.3,0.1-0.5c0-0.7-0.5-1.4-1.2-1.6l-2.7-0.9
				c0.6-1.8,1.3-3.5,2-5.2l2.6,1.2c0.8,0.4,1.8,0,2.2-0.8c0.1-0.2,0.1-0.5,0.1-0.7c0-0.6-0.4-1.3-1-1.5l-2.6-1.2
				c0.7-1.5,1.5-2.9,2.2-4.4l9,5.2c0.4,0.2,0.8,0.3,1.2,0.3c0.8,0,1.6-0.4,2-1.2c0.6-1.1,0.3-2.6-0.9-3.2l-9-5.2
				c0.9-1.4,1.7-2.8,2.7-4.1l2.3,1.7c0.7,0.5,1.8,0.4,2.3-0.4c0.2-0.3,0.3-0.6,0.3-1c0-0.5-0.2-1-0.7-1.4l-2.3-1.7
				c1.1-1.5,2.3-2.9,3.5-4.3l2.1,1.9c0.7,0.6,1.7,0.6,2.4-0.1c0.3-0.3,0.4-0.7,0.4-1.1c0-0.5-0.2-0.9-0.6-1.2l-2.1-1.9
				c1.3-1.4,2.6-2.7,3.9-3.9l1.9,2.1c0.6,0.7,1.7,0.7,2.4,0.1c0.4-0.3,0.6-0.8,0.6-1.2s-0.1-0.8-0.4-1.1l-1.9-2.1
				c1.4-1.2,2.9-2.4,4.3-3.5l1.7,2.3c0.5,0.7,1.6,0.9,2.3,0.4c0.5-0.3,0.7-0.8,0.7-1.4c0-0.3-0.1-0.7-0.3-1l-1.7-2.3
				c1.3-0.9,2.7-1.8,4.1-2.7l5.2,9c0.4,0.8,1.2,1.2,2,1.2c0.4,0,0.8-0.1,1.2-0.3c1.1-0.6,1.5-2.1,0.9-3.2l-5.2-9
				c1.4-0.8,2.9-1.5,4.4-2.2l1.2,2.6c0.4,0.8,1.4,1.2,2.2,0.8c0.6-0.3,1-0.9,1-1.5c0-0.2,0-0.5-0.1-0.7l-1.2-2.6
				c1.7-0.7,3.5-1.4,5.2-2l0.9,2.7c0.3,0.9,1.2,1.4,2.1,1.1c0.7-0.2,1.2-0.9,1.2-1.6c0-0.2,0-0.3-0.1-0.5l-0.9-2.7
				c1.8-0.5,3.6-1,5.4-1.4l0.6,2.8c0.2,0.9,1.1,1.5,2,1.3c0.8-0.2,1.3-0.9,1.3-1.6c0-0.1,0-0.2,0-0.3L-418,27
				c1.8-0.3,3.7-0.6,5.5-0.9l0.3,2.8c0.1,0.9,0.9,1.6,1.8,1.5s1.5-0.8,1.5-1.7c0-0.1,0-0.1,0-0.2l-0.3-2.8c1.6-0.1,3.3-0.2,4.9-0.3
				v10.4c0,1.3,1,2.3,2.3,2.3s2.3-1,2.3-2.3V25.1c1.6,0,3.3,0.1,4.9,0.3l-0.3,2.8c0,0.1,0,0.1,0,0.2c0,0.8,0.6,1.6,1.5,1.7
				s1.7-0.6,1.8-1.5l0.3-2.8c1.8,0.2,3.7,0.5,5.5,0.9l-0.6,2.8c0,0.1,0,0.2,0,0.3c0,0.8,0.5,1.5,1.3,1.6c0.9,0.2,1.8-0.4,2-1.3
				l0.6-2.8c1.8,0.4,3.6,0.9,5.4,1.4l-0.9,2.7c-0.1,0.2-0.1,0.3-0.1,0.5c0,0.7,0.5,1.4,1.2,1.6c0.9,0.3,1.8-0.2,2.1-1.1l0.9-2.7
				c1.8,0.6,3.5,1.3,5.2,2l-1.2,2.6c-0.1,0.2-0.1,0.5-0.1,0.7c0,0.6,0.4,1.3,1,1.5c0.8,0.4,1.8,0,2.2-0.8l1.2-2.6
				c1.5,0.7,2.9,1.4,4.4,2.2l-5.2,9c-0.6,1.1-0.3,2.6,0.9,3.2c0.4,0.2,0.8,0.3,1.2,0.3c0.8,0,1.6-0.4,2-1.2l5.2-9
				c1.4,0.9,2.8,1.7,4.1,2.7l-1.7,2.3c-0.2,0.3-0.3,0.6-0.3,1c0,0.5,0.2,1,0.7,1.4c0.7,0.5,1.8,0.4,2.3-0.4l1.7-2.3
				c1.5,1.1,2.9,2.3,4.3,3.5l-1.9,2.1c-0.3,0.3-0.4,0.7-0.4,1.1c0,0.5,0.2,0.9,0.6,1.2c0.7,0.6,1.8,0.6,2.4-0.1l1.9-2.1
				c1.4,1.3,2.7,2.6,3.9,3.9l-2.1,1.9c-0.4,0.3-0.6,0.8-0.6,1.2s0.1,0.8,0.4,1.1c0.6,0.7,1.7,0.7,2.4,0.1l2.1-1.9
				c1.2,1.4,2.4,2.9,3.5,4.3l-2.3,1.7c-0.5,0.3-0.7,0.8-0.7,1.4c0,0.3,0.1,0.7,0.3,1c0.5,0.7,1.6,0.9,2.3,0.4l2.3-1.7
				c0.9,1.3,1.8,2.7,2.7,4.1l-9,5.2c-1.1,0.6-1.5,2.1-0.9,3.2c0.4,0.8,1.2,1.2,2,1.2c0.4,0,0.8-0.1,1.2-0.3l9-5.2
				c0.8,1.4,1.5,2.9,2.2,4.4l-2.6,1.2c-0.6,0.3-1,0.9-1,1.5c0,0.2,0,0.5,0.1,0.7c0.4,0.8,1.4,1.2,2.2,0.9l2.6-1.2
				c0.7,1.7,1.4,3.4,2,5.2l-2.7,0.9c-0.7,0.2-1.2,0.9-1.2,1.6c0,0.2,0,0.3,0.1,0.5c0.3,0.9,1.2,1.4,2.1,1.1l2.7-0.9
				c0.5,1.8,1,3.6,1.4,5.4l-2.8,0.6c-0.8,0.2-1.3,0.9-1.3,1.6c0,0.1,0,0.2,0,0.3c0.2,0.9,1.1,1.5,2,1.3l2.8-0.6
				c0.4,1.8,0.6,3.7,0.9,5.5l-2.8,0.3c-0.9,0.1-1.5,0.8-1.5,1.7c0,0.1,0,0.1,0,0.2c0.1,0.9,0.9,1.6,1.8,1.5l2.8-0.3
				c0.1,1.6,0.2,3.3,0.3,4.9h-10.4l0,0c-1.3,0-2.3,1-2.3,2.3S-328.7,112.7-327.4,112.7z"/>
			<path class="st1" d="M-442.5,106.4V91.8c0-1.3-1-2.3-2.3-2.3s-2.3,1-2.3,2.3v14.6c-1.1,0.7-1.8,2-1.8,3.4c0,2.3,1.8,4.1,4.1,4.1
				c2.3,0,4.1-1.8,4.1-4.1C-440.7,108.3-441.4,107.1-442.5,106.4z"/>
			<path class="st1" d="M-402.6,129.4c-13.9,0-25.2,11.3-25.2,25.2s11.3,25.2,25.2,25.2c13.9,0,25.2-11.3,25.2-25.2
				S-388.7,129.4-402.6,129.4z M-402.6,176.5c-12.1,0-21.9-9.8-21.9-21.9c0-12.1,9.8-21.9,21.9-21.9s21.9,9.8,21.9,21.9
				S-390.5,176.5-402.6,176.5z"/>
			<path class="st1" d="M-403,150.4l-9.8-10.7c-0.9-1-2.4-1-3.3-0.1c-1,0.9-1,2.4-0.2,3.3l9.8,10.7c-0.3,1.3,0,2.7,1,3.7
				c1.5,1.7,4.1,1.8,5.8,0.3c1.7-1.5,1.8-4.2,0.3-5.8C-400.3,150.7-401.7,150.2-403,150.4z"/>
			<path class="st1" d="M-352.3,85.5l9.9-5.8c1.9-1.1,2.6-3.6,1.4-5.5c-1.1-1.9-3.6-2.5-5.5-1.4l-54.2,31.9l-0.5-64.8
				c0-0.5-0.5-0.9-1-0.9s-1,0.4-1,0.9l-0.7,64.6L-443,79c-1.9-1.2-4.3-0.7-5.6,1.2c-0.9,1.5-0.8,3.3,0.2,4.6
				c-12.2,1.7-21.6,12.3-21.6,24.9c0,13.9,11.3,25.2,25.2,25.2c13.9,0,25.2-11.3,25.2-25.2c0-2.2-0.3-4.4-0.8-6.4l12.8,8.4
				c0.4,1.7,1.7,3.1,3.4,3.8l-1.4,11.8c0,0.3,0.1,0.5,0.2,0.7c0.2,0.2,0.5,0.3,0.7,0.3h4.5c0.3,0,0.6-0.1,0.7-0.3
				c0.2-0.2,0.3-0.5,0.3-0.7l-1.3-11.8c1.6-0.6,2.8-1.9,3.3-3.5l13.3-7.8c-0.4,1.8-0.6,3.7-0.6,5.7c0,13.9,11.3,25.2,25.2,25.2
				c13.9,0,25.2-11.3,25.2-25.2C-334,98.3-341.8,88.6-352.3,85.5z M-444.8,131.6c-12.1,0-21.9-9.8-21.9-21.9s9.8-21.9,21.9-21.9
				c0.2,0,0.5,0,0.7,0l19,12.4c1.4,2.9,2.2,6.1,2.2,9.5C-423,121.8-432.8,131.6-444.8,131.6z M-402.3,113.7c-1.8,0-3.3-1.5-3.3-3.3
				s1.5-3.3,3.3-3.3s3.3,1.5,3.3,3.3S-400.5,113.7-402.3,113.7z M-359.3,131.6c-12.1,0-21.9-9.8-21.9-21.9c0-2.9,0.6-5.7,1.6-8.2
				l22.9-13.5c10.8,1.3,19.2,10.5,19.2,21.7C-337.4,121.8-347.2,131.6-359.3,131.6z"/>
		</g>
	</g>
</g>
</svg>
