<?xml version="1.0" encoding="utf-8"?>
<!-- Generator: Adobe Illustrator 24.1.0, SVG Export Plug-In . SVG Version: 6.00 Build 0)  -->
<svg version="1.1" id="Capa_1" xmlns="http://www.w3.org/2000/svg" xmlns:xlink="http://www.w3.org/1999/xlink" x="0px" y="0px"
	 viewBox="0 0 500 82" style="enable-background:new 0 0 500 82;" xml:space="preserve">
<style type="text/css">
	.st0{fill:none;stroke:#000000;stroke-width:3;stroke-linecap:round;}
	.st1{fill:#95A0A3;}
</style>
<line id="Separación" class="st0" x1="396.6" y1="2.7" x2="396.6" y2="79.3"/>
<g id="Reloj" transform="translate(148.68 0) scale(0.29)">
	<g>
		<g>
			<path class="st1" d="M1156.4,117.4l-16.4,16.4c-2-0.3-4.3,0.3-5.8,1.7c-2.6,2.6-2.6,6.6,0,9.2c2.6,2.6,6.6,2.6,9.2,0
				c1.7-1.4,2.3-3.7,1.7-5.8l16.4-16.4c1.4-1.4,1.4-3.7,0-5.2C1160.1,116,1157.8,116,1156.4,117.4z"/>
			<path class="st1" d="M1210.2,126.3L1210.2,126.3c-0.6-4.9-1.2-9.8-2.3-14.7l0,0c-1.2-4.9-2.3-9.5-3.7-14.4l0,0
				c-1.4-4.6-3.2-9.2-5.2-13.8l0,0c-4-8.9-8.9-17.6-14.7-25.6l0,0c-2.9-4-6-7.8-9.2-11.5c-3.2-3.7-6.9-7.2-10.4-10.4l0,0
				c-3.7-3.2-7.5-6.3-11.5-9.2l0,0c-8.1-5.8-16.7-10.6-25.6-14.7l0,0c-4.6-2-9.2-3.7-13.8-5.2l0,0c-4.6-1.4-9.5-2.9-14.4-3.7l0,0
				c-4.9-1.2-9.8-1.7-14.7-2.3l0,0c-9.8-1.2-19.6-1.2-29.4,0l0,0c-4.9,0.6-9.8,1.2-14.7,2.3l0,0c-4.9,1.2-9.5,2.3-14.4,3.7l0,0
				c-4.6,1.4-9.2,3.2-13.8,5.2l0,0c-8.6,4-17.3,8.9-25.3,15l0,0c-4,2.9-7.8,6-11.5,9.2l0,0c-3.7,3.2-7.2,6.9-10.4,10.4l0,0
				c-3.2,3.7-6.3,7.5-9.2,11.5l0,0c-5.8,8.1-10.6,16.7-14.7,25.6l0,0c-2,4.3-3.7,9.2-5.2,13.8l0,0c-1.4,4.6-2.9,9.5-3.7,14.1l0,0
				c-1.2,4.9-1.7,9.8-2.3,14.7l0,0c-0.9,4.9-1.2,9.8-1.2,14.7c0,4.9,0.3,9.8,0.9,14.7l0,0c0.6,4.9,1.2,9.8,2.3,14.7l0,0
				c1.2,4.9,2.3,9.5,3.7,14.4l0,0c1.4,4.6,3.2,9.2,5.2,13.8l0,0c4,8.9,8.9,17.6,14.7,25.6l0,0c2.9,4,6,7.8,9.2,11.5l0,0
				c3.2,3.7,6.9,7.2,10.4,10.4l0,0c3.7,3.2,7.5,6.3,11.5,9.2l0,0c8.1,5.8,16.7,10.6,25.6,14.7l0,0c4.6,2,9.2,3.7,13.8,5.2l0,0
				c4.6,1.4,9.5,2.9,14.4,3.7c4.9,1.2,9.8,1.7,14.7,2.3l0,0c4.9,0.6,9.8,0.9,14.7,0.9s9.8-0.3,14.7-0.9l0,0
				c4.9-0.6,9.8-1.2,14.7-2.3l0,0c4.9-1.2,9.5-2.3,14.4-3.7l0,0c4.6-1.4,9.2-3.2,13.8-5.2l0,0c8.9-4,17.6-8.9,25.6-14.7l0,0
				c4-2.9,7.8-6,11.5-9.2l0,0c3.7-3.2,7.2-6.9,10.4-10.4l0,0c3.2-3.7,6.3-7.5,9.2-11.5l0,0c5.8-8.1,10.6-16.7,14.7-25.6l0,0
				c2-4.6,3.7-9.2,5.2-13.8l0,0c1.4-4.6,2.9-9.5,3.7-14.4l0,0c1.2-4.9,1.7-9.8,2.3-14.7l0,0c0.6-4.9,0.9-9.8,0.9-14.7
				C1211.1,136.1,1210.8,131.2,1210.2,126.3z M1189.2,144.7h16.4c0,2.6-0.3,5.2-0.3,7.8l-4.6-0.6c-1.4-0.3-2.9,0.9-2.9,2.3v0.3
				c0,1.4,1.2,2.6,2.3,2.6l4.6,0.6c-0.3,2.9-0.9,5.8-1.4,8.9l-4.3-0.9c-1.4-0.3-2.9,0.6-3.2,2c0,0.3,0,0.3,0,0.6
				c0,1.2,0.9,2.3,2,2.6l4.3,0.9c-0.6,2.9-1.4,5.8-2.3,8.6l-4.3-1.4c-1.4-0.6-2.9,0.3-3.5,1.7c0,0.3,0,0.6,0,0.9
				c0,1.2,0.6,2.3,1.7,2.6l4.3,1.4c-0.9,2.9-2,5.5-3.2,8.3l-4-2c-1.4-0.6-2.9,0-3.5,1.4c-0.3,0.3-0.3,0.6-0.3,1.2
				c0,1.2,0.6,2,1.7,2.3l4,1.7c-1.2,2.3-2.3,4.6-3.5,6.9l-14.4-8.3c-1.7-1.2-4-0.3-5.2,1.4c-1.2,1.7-0.3,4,1.4,5.2l14.1,8.3
				c-1.4,2.3-2.9,4.3-4.3,6.6l-3.5-2.9c-1.2-0.9-2.9-0.6-3.7,0.6c-0.3,0.6-0.6,1.2-0.6,1.4c0,0.9,0.3,1.7,1.2,2.3l3.7,2.6
				c-1.7,2.3-3.7,4.6-5.5,6.9l-3.5-2.9c-1.2-0.9-2.9-0.9-3.7,0.3c-0.6,0.6-0.6,1.2-0.6,1.7c0,0.9,0.3,1.4,0.9,2l3.5,2.9
				c-2,2-4,4.3-6.3,6.3l-2.9-3.5c-0.9-1.2-2.6-1.2-3.7-0.3c-0.6,0.6-0.9,1.2-0.9,2c0,0.6,0.3,1.2,0.6,1.7l2.9,3.5
				c-2.3,2-4.6,3.7-6.9,5.5l-2.6-3.7c-0.9-1.2-2.6-1.4-3.7-0.6c-0.6,0.6-1.2,1.4-1.2,2.3c0,0.6,0.3,1.2,0.6,1.4l2.6,3.7
				c-2,1.4-4.3,2.9-6.6,4.3l-8.3-14.1c-1.2-1.7-3.5-2.3-5.2-1.4c-1.7,1.2-2.3,3.2-1.4,5.2l8.3,14.4c-2.3,1.2-4.6,2.3-6.9,3.5l-1.7-4
				c-0.6-1.4-2.3-2-3.5-1.4c-0.9,0.6-1.4,1.4-1.4,2.3c0,0.3,0,0.9,0.3,1.2l1.7,4c-2.6,1.2-5.5,2.3-8.3,3.2l-1.4-4
				c-0.6-1.4-2-2.3-3.5-1.7c-1.2,0.3-1.7,1.4-1.7,2.6c0,0.3,0,0.6,0,0.9l1.4,4.3c-2.9,0.9-5.8,1.7-8.6,2.3l-0.9-4.3
				c-0.3-1.4-1.7-2.3-3.2-2c-1.2,0.3-2,1.4-2,2.6c0,0.3,0,0.3,0,0.6l0.9,4.3c-2.9,0.6-5.8,1.2-8.9,1.4l-0.6-4.6
				c-0.3-1.4-1.4-2.6-2.9-2.3s-2.3,1.4-2.3,2.6v0.3l0.6,4.3c-2.6,0.3-5.2,0.3-7.8,0.3v-16.4c0-2-1.7-3.7-3.7-3.7l0,0
				c-2,0-3.7,1.7-3.7,3.7v16.4c-2.6,0-5.2-0.3-7.8-0.3l0.6-4.6v-0.3c0-1.4-1.2-2.6-2.3-2.6c-1.4-0.3-2.9,0.9-2.9,2.3l-0.6,4.6
				c-2.9-0.3-5.8-0.9-8.6-1.4l0.9-4.3c0-0.3,0-0.3,0-0.6c0-1.2-0.9-2.3-2-2.6c-1.4-0.3-2.9,0.6-3.2,2l-0.9,4.3
				c-2.9-0.6-5.8-1.4-8.6-2.3l1.4-4.3c0-0.3,0-0.6,0-0.9c0-1.2-0.6-2.3-1.7-2.6c-1.4-0.6-2.9,0.3-3.5,1.7l-1.4,4.3
				c-2.9-0.9-5.5-2-8.3-3.2l1.7-4c0.3-0.3,0.3-0.6,0.3-1.2c0-1.2-0.6-2-1.4-2.3c-1.4-0.6-2.9,0-3.5,1.4l-2,4
				c-2.3-1.2-4.6-2.3-6.9-3.5l8.3-14.4c1.2-1.7,0.3-4-1.4-5.2c-1.7-1.2-4-0.3-5.2,1.4l-8.3,14.4c-2.3-1.4-4.3-2.9-6.6-4.3l2.6-3.7
				c0.3-0.6,0.6-1.2,0.6-1.4c0-0.9-0.3-1.7-1.2-2.3c-1.2-0.9-2.9-0.6-3.7,0.6l-2.6,3.7c-2.3-1.7-4.6-3.7-6.9-5.5l2.9-3.5
				c0.6-0.6,0.6-1.2,0.6-1.7c0-0.9-0.3-1.4-0.9-2c-1.2-0.9-2.9-0.9-3.7,0.3l-2.9,3.5c-2.3-2-4.3-4-6.3-6.3l3.5-2.9
				c0.6-0.6,0.9-1.2,0.9-2c0-0.6-0.3-1.2-0.6-1.7c-0.9-1.2-2.6-1.2-3.7-0.3l-3.5,2.9c-2-2.3-3.7-4.6-5.5-6.9l3.7-2.6
				c0.6-0.6,1.2-1.4,1.2-2s-0.3-1.2-0.6-1.4c-0.9-1.2-2.6-1.4-3.7-0.6l-3.7,2.3c-1.4-2-2.9-4.3-4.3-6.6l14.4-8.3
				c1.7-1.2,2.3-3.5,1.4-5.2c-1.2-1.7-3.2-2.3-5.2-1.4l-14.4,8.3c-1.2-2.3-2.6-4.6-3.5-6.9l4-1.7c0.9-0.6,1.7-1.4,1.7-2.3
				c0-0.3,0-0.9-0.3-1.2c-0.6-1.4-2-2-3.5-1.4l-4,1.7c-1.2-2.6-2.3-5.5-3.2-8.3l4-1.2c1.2-0.3,1.7-1.4,1.7-2.6c0-0.3,0-0.6,0-0.9
				c-0.6-1.4-2-2.3-3.5-1.7l-4.3,1.4c-0.9-2.9-1.7-5.8-2.3-8.6l4.3-0.9c1.2-0.3,2-1.4,2-2.6c0-0.3,0-0.3,0-0.6
				c-0.3-1.4-1.7-2.3-3.2-2l-4.3,0.9c-0.6-2.9-1.2-5.8-1.4-8.6l4.6-0.6c1.4,0,2.3-1.4,2.3-2.6v-0.3c-0.3-1.4-1.4-2.6-2.9-2.3
				l-4.3,0.3c-0.3-2.6-0.3-5.2-0.3-7.8h16.4c2,0,3.7-1.7,3.7-3.7c0-2-1.7-3.7-3.7-3.7h-16.4c0-2.6,0.3-5.2,0.3-7.8l4.6,0.6
				c1.4,0.3,2.9-0.9,2.9-2.3v-0.3c0-1.4-1.2-2.6-2.3-2.6l-4.6-0.6c0.3-2.9,0.9-5.8,1.4-8.6l4.3,0.9c1.4,0.3,2.9-0.6,3.2-2
				c0-0.3,0-0.3,0-0.6c0-1.2-0.9-2.3-2-2.6l-4.3-0.9c0.6-2.9,1.4-5.8,2.3-8.6l4.3,1.4c1.4,0.6,2.9-0.3,3.5-1.7c0-0.3,0-0.6,0-0.9
				c0-1.2-0.6-2.3-1.7-2.6l-4.3-1.4c0.9-2.9,2-5.5,3.2-8.3l4,1.7c1.4,0.6,2.9,0,3.5-1.4c0.3-0.3,0.3-0.9,0.3-1.2
				c0-1.2-0.6-2-1.4-2.3l-4.3-1.7c1.2-2.3,2.3-4.6,3.5-6.9l14.4,8.3c0.6,0.3,1.2,0.6,1.7,0.6c1.2,0,2.6-0.6,3.2-1.7
				c1.2-1.7,0.3-4-1.4-5.2l-14.4-8.3c1.4-2.3,2.9-4.3,4.3-6.6l3.7,2.6c1.2,0.9,2.9,0.6,3.7-0.6c0.3-0.6,0.6-1.2,0.6-1.4
				c0-0.9-0.3-1.7-1.2-2.3l-3.7-2.6c1.7-2.3,3.7-4.6,5.5-6.9l3.5,2.9c1.2,0.9,2.9,0.9,3.7-0.3c0.6-0.6,0.6-1.2,0.6-1.7
				c0-0.9-0.3-1.4-0.9-2l-3.5-2.9c2-2.3,4-4.3,6.3-6.3l2.9,3.5c0.9,1.2,2.6,1.2,3.7,0.3c0.6-0.6,0.9-1.2,0.9-2
				c0-0.6-0.3-1.2-0.6-1.7l-2.9-3.5c2.3-2,4.6-3.7,6.9-5.5l2.6,3.7c0.9,1.2,2.6,1.4,3.7,0.6c0.6-0.6,1.2-1.4,1.2-2.3
				c0-0.6-0.3-1.2-0.6-1.4l-2.3-4c2-1.4,4.3-2.9,6.6-4.3l8.3,14.4c0.6,1.2,2,1.7,3.2,1.7c0.6,0,1.2-0.3,1.7-0.6
				c1.7-1.2,2.3-3.2,1.4-5.2l-8.3-14.4c2.3-1.2,4.6-2.6,6.9-3.5l1.7,4c0.6,1.4,2.3,2,3.5,1.4c0.9-0.6,1.4-1.4,1.4-2.3
				c0-0.3,0-0.9-0.3-1.2l-1.7-4c2.6-1.2,5.5-2.3,8.3-3.2l1.7,4.3c0.6,1.4,2,2.3,3.5,1.7c1.2-0.3,1.7-1.4,1.7-2.6c0-0.3,0-0.6,0-0.9
				l-1.4-4.3c2.9-0.9,5.8-1.7,8.6-2.3l0.9,4.3c0.3,1.4,1.7,2.3,3.2,2c1.2-0.3,2-1.4,2-2.6c0-0.3,0-0.3,0-0.6l-0.9-4.3
				c2.9-0.6,5.8-1.2,8.6-1.4l0.6,4.6c0.3,1.4,1.4,2.6,2.9,2.3c1.4-0.3,2.3-1.4,2.3-2.6v-0.3l-0.3-4.3c2.6-0.3,5.2-0.3,7.8-0.3v16.4
				c0,2,1.7,3.7,3.7,3.7c2,0,3.7-1.7,3.7-3.7V5.5c2.6,0,5.2,0.3,7.8,0.3l-0.6,4.6v0.3c0,1.4,1.2,2.6,2.3,2.6
				c1.4,0.3,2.9-0.9,2.9-2.3l0.6-4.6c2.9,0.3,5.8,0.9,8.9,1.4l-0.9,4.3c0,0.3,0,0.3,0,0.6c0,1.2,0.9,2.3,2,2.6
				c1.4,0.3,2.9-0.6,3.2-2l0.9-4.3c2.9,0.6,5.8,1.4,8.6,2.3l-1.4,4.3c0,0.3,0,0.6,0,0.9c0,1.2,0.6,2.3,1.7,2.6
				c1.4,0.6,2.9-0.3,3.5-1.7l1.4-4.3c2.9,0.9,5.5,2,8.3,3.2l-2,4c-0.3,0.3-0.3,0.9-0.3,1.2c0,1.2,0.6,2,1.4,2.3
				c1.4,0.6,2.9,0,3.5-1.4l2-4c2.3,1.2,4.6,2.3,6.9,3.5l-8.3,14.4c-1.2,1.7-0.3,4,1.4,5.2c0.6,0.3,1.2,0.6,1.7,0.6
				c1.2,0,2.6-0.6,3.2-1.7l8.3-14.4c2.3,1.4,4.3,2.9,6.6,4.3l-2.6,3.5c-0.3,0.6-0.6,1.2-0.6,1.4c0,0.9,0.3,1.7,1.2,2.3
				c1.2,0.9,2.9,0.6,3.7-0.6l2.6-3.7c2.3,1.7,4.6,3.7,6.9,5.5l-2.9,3.5c-0.6,0.6-0.6,1.2-0.6,1.7c0,0.9,0.3,1.4,0.9,2
				c1.2,0.9,2.9,0.9,3.7-0.3l2.9-3.5c2,2,4.3,4,6.3,6.3l-3.5,2.9c-0.3,0.9-0.6,1.7-0.6,2.3s0.3,1.2,0.6,1.7c0.9,1.2,2.6,1.2,3.7,0.3
				l3.5-2.9c2,2.3,3.7,4.6,5.5,6.9l-3.7,2.6c-0.6,0.6-1.2,1.4-1.2,2.3c0,0.6,0.3,1.2,0.6,1.4c0.9,1.2,2.6,1.4,3.7,0.6l3.7-2.6
				c1.4,2,2.9,4.3,4.3,6.6l-14.4,8.3c-1.7,1.2-2.3,3.2-1.4,5.2c0.6,1.2,2,1.7,3.2,1.7c0.6,0,1.2-0.3,1.7-0.6l14.4-8.3
				c1.2,2.3,2.3,4.6,3.5,6.9l-4,1.7c-0.9,0.6-1.4,1.4-1.4,2.3c0,0.3,0,0.9,0.3,1.2c0.6,1.4,2.3,2,3.5,1.4l4-1.7
				c1.2,2.6,2.3,5.5,3.2,8.3l-4,1.2c-1.2,0.3-1.7,1.4-1.7,2.6c0,0.3,0,0.6,0,0.9c0.6,1.4,2,2.3,3.5,1.7l4.3-1.4
				c0.9,2.9,1.7,5.8,2.3,8.6l-4.3,0.9c-1.2,0.3-2,1.4-2,2.6c0,0.3,0,0.3,0,0.6c0.3,1.4,1.7,2.3,3.2,2l4.3-0.9
				c0.6,2.9,1.2,5.8,1.4,8.6l-4.6,0.6c-1.4,0.3-2.3,1.4-2.3,2.6v0.3c0.3,1.4,1.4,2.6,2.9,2.3l4.3-0.3c0.3,2.6,0.3,5.2,0.6,7.8h-16.4
				l0,0c-2,0-3.7,1.7-3.7,3.7C1185.7,143,1187.2,144.7,1189.2,144.7z"/>
			<path class="st1" d="M1006.2,134.7v-23.3c0-2-1.7-3.7-3.7-3.7s-3.7,1.7-3.7,3.7v23.3c-1.7,1.2-2.9,3.2-2.9,5.5
				c0,3.7,2.9,6.6,6.6,6.6s6.6-2.9,6.6-6.6C1009.1,137.8,1007.9,135.8,1006.2,134.7z"/>
			<path class="st1" d="M1069.8,171.2c-22.2,0-40,18.1-40,40c0,22.2,18.1,40,40,40c22.2,0,40-18.1,40-40S1091.9,171.2,1069.8,171.2z
				 M1069.8,246.3c-19.3,0-34.8-15.5-34.8-34.8s15.5-34.8,34.8-34.8c19.3,0,34.8,15.5,34.8,34.8
				C1104.6,230.5,1088.8,246.3,1069.8,246.3z"/>
			<path class="st1" d="M1068.9,204.9l-15.5-17c-1.4-1.4-3.7-1.7-5.2-0.3c-1.4,1.4-1.7,3.7-0.3,5.2l15.5,17c-0.6,2,0,4.3,1.4,6
				c2.6,2.6,6.6,2.9,9.2,0.3c2.6-2.3,2.9-6.6,0.3-9.2C1073.2,205.2,1071.2,204.6,1068.9,204.9z"/>
			<path class="st1" d="M1149.8,101.6l15.8-9.2c3.2-1.7,4-5.8,2.3-8.6c-1.7-3.2-5.8-4-8.6-2.3l-86.3,50.6l-0.9-103
				c0-0.9-0.9-1.4-1.7-1.4c-0.9,0-1.7,0.6-1.7,1.4l-1.2,102.7l-62.2-40.6c-2.9-2-6.9-1.2-8.9,1.7c-1.4,2.3-1.4,5.2,0.3,7.2
				c-19.3,2.9-34.2,19.6-34.2,39.7c0,22.2,17.8,40,40,40s40-18.1,40-40c0-3.5-0.6-6.9-1.4-10.1l20.4,13.2c0.6,2.9,2.6,4.9,5.5,6
				l-2,18.7c0,0.3,0,0.9,0.3,1.2s0.9,0.6,1.2,0.6h7.2c0.6,0,0.9-0.3,1.2-0.6c0.3-0.3,0.6-0.9,0.3-1.2l-2-18.7
				c2.6-0.9,4.6-2.9,5.2-5.8l21.3-12.4c-0.6,2.9-1.2,5.8-1.2,8.9c0,22.2,18.1,40,40,40c22.2,0,40-18.1,40-40
				C1178.8,121.7,1166.5,106.5,1149.8,101.6z M1002.4,175c-19.3,0-34.8-15.5-34.8-34.8s15.5-34.8,34.8-34.8c0.3,0,0.9,0,1.2,0
				l30.2,19.6c2.3,4.6,3.5,9.8,3.5,15C1037.3,159.1,1021.7,175,1002.4,175z M1070.1,146.2c-2.9,0-5.2-2.3-5.2-5.2s2.3-5.2,5.2-5.2
				c2.9,0,5.2,2.3,5.2,5.2S1072.9,146.2,1070.1,146.2z M1138.6,175c-19.3,0-34.8-15.5-34.8-34.8c0-4.6,0.9-8.9,2.6-12.9l36.5-21.6
				c17.3,2,30.5,16.7,30.5,34.5C1173.4,159.1,1157.8,175,1138.6,175z"/>
		</g>
	</g>
</g>
<g id="Texto">
	<path d="M0,68.4v-3.2h0.9c1.7,0,3.2-0.3,4.3-0.9c1.2-0.6,1.7-2.3,1.7-4.6V22.4c0-2.3-0.6-4-1.7-4.6s-2.6-0.9-4.3-0.9H0v-3.2h22.1
		v3.2h-0.9c-1.7,0-3.2,0.3-4.6,0.9c-1.2,0.6-1.7,2-1.7,4.3v42.3h15c1.4,0,2.9-0.3,3.7-0.9c0.9-0.6,1.7-1.7,2-2.6
		c0.6-1.2,0.9-2,0.9-3.2l0.9-5.8h4l-0.6,16.4H0z M60.4,69c-3.5,0-6.3-0.9-8.6-2.9c-2.3-2-3.5-5.2-3.5-9.2c0-4,1.4-7.2,4.3-8.9
		c2.9-2,7.2-2.9,13.2-3.2l6.3-0.3V40c0-1.7-0.3-3.5-0.6-4.9s-0.9-2.6-2-3.5S67,30.5,65,30.5s-3.5,0.3-4.3,1.2
		c-1.2,0.6-1.7,1.7-2,2.9s-0.6,2.6-0.6,4.3c-2,0-3.7-0.3-4.9-1.2c-1.2-0.9-1.7-2-1.7-3.7c0-1.7,0.6-3.2,1.7-4.3s2.9-1.7,5.2-2.3
		c2-0.6,4.3-0.9,6.9-0.9c4.6,0,8.1,0.9,10.4,2.9s3.5,5.5,3.5,10.4v19.8c0,2,0.3,3.7,1.2,4.3c0.6,0.9,2,1.2,3.7,1.2h0.3v3.2H73.9
		l-1.2-6.6h-0.3c-1.2,1.4-2,2.6-3.2,3.7s-2.3,2-3.7,2.6C64.4,68.7,62.7,69,60.4,69z M62.1,64.4c3.2,0,5.5-0.9,7.5-2.9
		c1.7-2,2.9-4.6,2.9-7.8v-6.3l-4.9,0.3c-4.3,0.3-7.5,1.2-8.9,2.6c-1.7,1.4-2.6,3.7-2.6,6.9C56.1,62.1,58.1,64.4,62.1,64.4z
		 M110.7,68.4v-3.2h0.9c1.7,0,3.2-0.3,4.3-0.9c1.2-0.6,2-2,2-4.3v-38c0-2.3-0.6-3.7-2-4.3c-1.2-0.6-2.6-0.9-4.3-0.9h-0.9v-3.2h17.5
		l15.8,43.7l15.8-43.7h17v3.2H176c-1.7,0-3.2,0.3-4.3,0.9s-1.7,2-1.7,4.6v37.1c0,2.3,0.6,4,1.7,4.6c1.2,0.6,2.6,0.9,4.3,0.9h0.9v3.2
		h-20.4V65h0.3c1.7,0,2.9-0.3,4-0.9c0.9-0.6,1.4-2,1.7-4V19.5l-17.5,48.9h-4l-17.8-48.9v40c0,2.3,0.6,4,1.4,4.6
		c0.9,0.6,2.3,0.9,4,0.9h0.3v3.2h-18.1V68.4z M201.6,69c-5.5,0-9.8-1.7-12.9-5.2s-4.9-8.9-4.9-16.1s1.4-12.4,4.6-15.8
		c3.2-3.5,7.5-5.2,13.5-5.2c5.5,0,9.8,1.7,12.9,5.2c3.2,3.5,4.9,8.9,4.9,15.8c0,7.2-1.4,12.7-4.6,16.1S207.3,69,201.6,69z
		 M201.6,65.3c3.7,0,6.6-1.4,8.1-4.3c1.4-2.9,2.3-7.2,2.3-12.9s-0.9-10.1-2.3-12.9c-1.7-2.9-4.3-4.3-8.1-4.3c-3.7,0-6.6,1.4-8.1,4.3
		c-1.4,2.9-2.3,7.2-2.3,12.9s0.9,10.1,2.3,12.9C195.2,63.5,197.8,65.3,201.6,65.3z M226,68.4v-3.2h0.6c1.7,0,3.2-0.3,4.3-0.9
		c1.2-0.6,1.7-2.3,1.7-4.6V35.9c0-2.3-0.6-3.7-1.7-4.3c-1.2-0.6-2.6-0.9-4.3-0.9h-0.3v-3.5h12.4l0.9,6.3h0.3
		c1.4-2.9,3.5-4.6,5.2-5.5c2-0.9,4.3-1.4,6.6-1.4c4,0,7.2,1.2,9.5,3.7c2.3,2.3,3.5,6,3.5,11.5v18.1c0,2.3,0.6,4,1.4,4.6
		c1.2,0.6,2.6,0.9,4.3,0.9h0.6v3.2h-13.2V42.3c0-3.5-0.6-5.8-2-7.8c-1.2-1.7-3.5-2.9-6.6-2.9c-2.3,0-4,0.6-5.5,1.7
		c-1.4,1.2-2.3,2.6-2.9,4.6c-0.6,2-0.9,4-0.9,6v16.1c0,2.3,0.6,3.7,1.7,4.3s2.6,0.9,4.3,0.9h0.3v3.2H226z M291.6,69
		c-3.7,0-6.6-0.9-8.6-2.6c-1.7-1.7-2.6-4.9-2.6-9.2V31.6h-5.8v-3.2c0.9,0,2-0.3,3.2-0.6c1.2-0.3,2-1.2,2.9-2c0.9-0.9,1.7-2,2-3.5
		c0.6-1.4,1.2-2.9,1.4-4.9h3.5V27h10.1v4.3h-10.1v25.9c0,2.6,0.6,4.6,1.7,5.8c1.2,1.2,2.6,1.7,4.3,1.7c0.9,0,1.7,0,2.6-0.3
		c0.9,0,1.4-0.3,2.3-0.3v3.5c-0.6,0.3-1.7,0.6-2.9,0.9C293.9,69,292.7,69,291.6,69z M302.5,68.4v-3.2h0.3c1.7,0,3.2-0.3,4.3-0.9
		c1.2-0.6,1.7-2.3,1.7-4.6V35.9c0-2.3-0.6-3.7-2-4.3c-1.2-0.6-2.6-0.9-4.3-0.9l0,0v-3.5h11.8l1.4,7.5h0.3c0.6-1.4,1.4-2.9,2-4.3
		c0.6-1.4,1.7-2.3,3.2-2.9c1.2-0.9,3.2-1.2,5.2-1.2c2.9,0,4.9,0.6,6.3,1.4c1.4,0.9,2,2.3,2,4c0,1.7-0.6,2.9-1.7,4s-2.9,1.4-5.5,1.4
		c0-2-0.3-3.7-0.9-4.6c-0.6-0.9-1.7-1.4-3.2-1.4s-2.6,0.6-3.7,1.7c-0.9,1.2-1.7,2.6-2.3,4.3c-0.6,1.7-0.9,3.5-1.2,5.5
		c-0.3,1.7-0.3,3.5-0.3,4.9v12.4c0,2.3,0.6,3.7,1.7,4.3c1.2,0.6,2.9,0.9,4.3,0.9h2v3.2H302.5z M358,69c-5.5,0-10.1-1.7-13.2-5.5
		s-4.6-8.9-4.6-15.5c0-7.2,1.4-12.7,4.3-16.1c2.9-3.7,7.2-5.5,12.7-5.5c4.9,0,8.9,1.4,11.5,4.6c2.9,3.2,4.3,7.8,4.3,13.8v3.5h-25.6
		c0,5.5,1.2,9.5,2.9,12.1c2,2.6,4.9,3.7,8.3,3.7c2.6,0,4.9-0.6,6.6-1.7c2-1.2,3.2-2.3,4.3-3.7c0.3,0.3,0.6,0.6,0.9,0.9
		c0.3,0.6,0.6,1.2,0.6,1.7c0,1.2-0.6,2-1.4,3.2c-0.9,1.2-2.6,2.3-4.3,3.2C363.4,68.7,361.1,69,358,69z M365.5,44.3
		c0-4-0.6-7.5-2-9.8c-1.2-2.6-3.5-3.7-6.3-3.7s-4.9,1.2-6.6,3.5c-1.4,2.3-2.3,5.8-2.6,10.1H365.5z"/>
</g>
</svg>
