<?xml version="1.0" encoding="utf-8"?>
<!-- Generator: Adobe Illustrator 24.1.0, SVG Export Plug-In . SVG Version: 6.00 Build 0)  -->
<svg version="1.1" xmlns="http://www.w3.org/2000/svg" xmlns:xlink="http://www.w3.org/1999/xlink" x="0px" y="0px"
	 viewBox="0 0 192 192" style="enable-background:new 0 0 192 192;" xml:space="preserve">
<style type="text/css">
	.st0{fill:#FFFFFF;}
	.st1{fill:none;stroke:#000000;stroke-width:0.5;stroke-miterlimit:10;}
	.st2{fill:none;stroke:#000000;stroke-width:3;stroke-miterlimit:10;}
	.st3{fill:none;stroke:#000000;stroke-width:5;stroke-miterlimit:10;}
	.st4{fill:none;stroke:#000000;stroke-width:0.75;stroke-miterlimit:10;}
</style>
<g id="Fondo">
	<ellipse class="st0" cx="95.8" cy="95.4" rx="78.2" ry="91.7"/>
</g>
<g id="Capa_1">
	<g id="Reloj">
		<path d="M28,27.6C45.4,9.9,68.1,1.1,96,1.1s50.6,8.8,68.1,26.4C181.6,45,190.3,68,190.3,96.4s-8.7,51.5-26.2,69.1
			C146.7,183,124,191.7,96,191.7S45.4,183,28,165.5C10.7,147.9,2.1,124.9,2.1,96.4S10.7,45,28,27.6z M42.4,159.8
			C56,175.8,73.9,183.8,96,183.8c22.3,0,40.2-8,53.7-24.1c13.6-16.1,20.4-37.2,20.4-63.3c0-17.3-3.1-32.5-9.2-45.8
			c-6.1-13.3-14.8-23.5-26.2-30.6C123.6,12.7,110.7,9,96,9C73.9,9,56,17,42.4,33.1C28.9,49.1,22.2,70.2,22.2,96.4
			S28.9,143.7,42.4,159.8z"/>
		<line class="st1" x1="96.2" y1="14" x2="96.2" y2="24.1"/>
		<line class="st1" x1="96.2" y1="168.7" x2="96.2" y2="178.8"/>
		<line class="st1" x1="156" y1="96.4" x2="166.1" y2="96.4"/>
		<line class="st1" x1="27.3" y1="96.4" x2="37.3" y2="96.4"/>
		<line class="st2" x1="97" y1="26.1" x2="97" y2="94.9"/>
		<line class="st3" x1="120" y1="57.9" x2="97" y2="94.9"/>
		<line class="st4" x1="51.2" y1="153.4" x2="97" y2="94.9"/>
	</g>
	<g id="M">
		<path d="M158.3,142.9h2.3v1.4H130V143h2.1c1.6,0,3-0.6,4.1-1.8c1.1-1.3,1.6-2.7,1.4-4.2l-6.3-71l-29.6,65.9
			c-2.6,5.7-4.2,10.5-4.8,14.4h-1.4L59.3,68l-6.1,69c-0.2,1.5,0.3,2.9,1.4,4.2c1.1,1.2,2.4,1.8,4,1.8h2.3v1.3H33.5v-1.4h2.3
			c2.6,0,4.9-0.8,6.8-2.4c2-1.6,3.2-3.8,3.5-6.5l10.6-90.4H58l39.4,85.1l38.5-85.1h1.3L148,134c0.5,3.8,2.4,6.4,5.6,7.9
			C155.1,142.5,156.6,142.9,158.3,142.9z"/>
	</g>
</g>
</svg>
