<?xml version="1.0" encoding="utf-8"?>
<!-- Generator: Adobe Illustrator 24.1.0, SVG Export Plug-In . SVG Version: 6.00 Build 0)  -->
<svg version="1.1" id="Capa_1" xmlns="http://www.w3.org/2000/svg" xmlns:xlink="http://www.w3.org/1999/xlink" x="0px" y="0px"
	 viewBox="0 0 292 39" style="enable-background:new 0 0 292 39;" xml:space="preserve">
<style type="text/css">
	.st0{fill:none;stroke:#000000;stroke-width:0.5;stroke-miterlimit:10;}
	.st1{fill:none;stroke:#000000;stroke-miterlimit:10;}
	.st2{fill:none;stroke:#000000;stroke-width:1.5;stroke-miterlimit:10;}
	.st3{fill:none;stroke:#000000;stroke-width:0.75;stroke-miterlimit:10;}
</style>
<g id="reloj">
	<path d="M129.1,6.1c3.5-3.5,8-5.3,13.5-5.3c5.5,0,10.1,1.8,13.5,5.3c3.5,3.5,5.2,8,5.2,13.7s-1.7,10.2-5.2,13.7
		c-3.5,3.5-8,5.2-13.5,5.2c-5.5,0-10.1-1.7-13.5-5.2c-3.4-3.5-5.1-8.1-5.1-13.7S125.7,9.6,129.1,6.1z M132,32.4
		c2.7,3.2,6.3,4.8,10.7,4.8c4.4,0,8-1.6,10.7-4.8c2.7-3.2,4.1-7.4,4.1-12.6c0-3.4-0.6-6.5-1.8-9.1c-1.2-2.6-2.9-4.7-5.2-6.1
		c-2.2-1.5-4.8-2.2-7.7-2.2c-4.4,0-8,1.6-10.7,4.8c-2.7,3.2-4,7.4-4,12.6S129.3,29.2,132,32.4z"/>
	<line class="st0" x1="142.7" y1="3.4" x2="142.7" y2="5.4"/>
	<line class="st0" x1="142.7" y1="34.2" x2="142.7" y2="36.2"/>
	<line class="st0" x1="154.6" y1="19.8" x2="156.6" y2="19.8"/>
	<line class="st0" x1="129" y1="19.8" x2="131" y2="19.8"/>
	<line class="st1" x1="142.8" y1="5.8" x2="142.8" y2="19.5"/>
	<line class="st2" x1="150.8" y1="14.2" x2="142.8" y2="19.5"/>
	<line class="st3" x1="133.7" y1="31.1" x2="142.8" y2="19.5"/>
</g>
<path d="M0.8,37.5c0.9,0,1.7-0.3,2.3-0.9c0.7-0.7,1-1.4,1-2.3V5.4c0-0.9-0.4-1.7-1-2.3c-0.6-0.7-1.4-1-2.3-1H0.1V1.6h11.4v0.5h-0.7
	C9.6,2.1,8.6,2.7,8,3.7C7.7,4.3,7.5,4.8,7.5,5.4v31h7.4c2.6,0,4.5-0.6,5.9-1.7s2.5-2.8,3.4-5.1h0.5l-3,8.4H0.1v-0.5H0.8z M60.5,37.5
	h0.4V38H50.3v-0.5h0.4c0.7,0,1.2-0.2,1.5-0.7c0.3-0.5,0.5-0.9,0.5-1.2c0-0.4-0.1-0.8-0.2-1.2l-2.9-6.9H36.5l-2.9,6.8
	c-0.2,0.5-0.3,0.9-0.3,1.3c0,0.4,0.2,0.8,0.5,1.3c0.3,0.5,0.9,0.7,1.6,0.7h0.4V38h-9.9v-0.5h0.4c0.7,0,1.5-0.2,2.2-0.7
	c0.8-0.5,1.4-1.3,1.9-2.3C38,18.2,42,9.7,42.3,9c0.6-1.5,0.9-2.4,0.9-2.9h0.5l12.8,28.4C57.5,36.5,58.9,37.5,60.5,37.5z M37.2,25.9
	H49l-5.8-14.2L37.2,25.9z M120.5,37.5h0.8V38H110v-0.5h0.8c0.6,0,1.1-0.2,1.5-0.7c0.4-0.5,0.6-1,0.5-1.6l-2.3-26.2L99.6,33.4
	c-1,2.1-1.6,3.9-1.8,5.3h-0.5L84,9.9l-2.2,25.4c-0.1,0.6,0.1,1.1,0.5,1.6c0.4,0.5,0.9,0.7,1.5,0.7h0.8V38H74.5v-0.5h0.8
	c1,0,1.8-0.3,2.5-0.9c0.7-0.6,1.2-1.4,1.3-2.4L83,0.9h0.5L98,32.2l14.2-31.4h0.5l4,33.3c0.2,1.4,0.9,2.4,2.1,2.9
	C119.3,37.4,119.9,37.5,120.5,37.5z M199.4,7.3c-0.8,0-1.4,0.3-2,0.8c-0.6,0.5-0.8,1.1-0.9,1.8v22.2c0,2,0.1,3.9,0.4,5.7l0.1,0.9
	h-0.5l-27-25.6v21.7c0,0.8,0.3,1.4,0.8,1.9c0.6,0.5,1.2,0.8,2,0.8h0.9V38h-9.8v-0.5h0.9c0.8,0,1.5-0.3,2-0.8
	c0.6-0.5,0.8-1.2,0.8-1.9V12.5c0-2.1-0.1-4-0.4-5.7L166.7,6l0.6,0.1l27,25.4V9.9c-0.1-0.7-0.4-1.3-0.9-1.8c-0.6-0.5-1.2-0.8-2-0.8
	h-0.9V6.8h9.8v0.5H199.4z M218.8,8.3v26.4c0,1.1,0.6,1.9,1.6,2.4c0.5,0.2,1,0.4,1.5,0.4h0.6V38h-10.7v-0.5h0.6
	c0.8,0,1.5-0.3,2.1-0.8c0.6-0.6,0.9-1.2,0.9-2V8.3h-9.4c-0.8,0-1.4,0.3-1.9,0.8c-0.4,0.5-0.7,1.1-0.7,1.9v0.8h-0.6V5.9
	c0.7,0.3,1.7,0.5,2.9,0.6c1.3,0.1,2.2,0.2,2.9,0.2h17c2.5,0,4.4-0.3,5.8-0.8v5.9h-0.6V11c0-0.7-0.2-1.4-0.7-1.9
	c-0.5-0.5-1.1-0.8-1.9-0.8H218.8z M244.8,8.4H242v26.3c0,1.1,0.5,1.9,1.5,2.4c0.5,0.2,1,0.4,1.5,0.4h0.7l0.1,0.5H235v-0.5h0.7
	c0.8,0,1.5-0.3,2-0.8c0.6-0.6,0.9-1.2,0.9-2V10c0-0.8-0.3-1.4-0.9-1.9c-0.6-0.5-1.2-0.8-2-0.8H235V6.8h13.1c3.3,0,5.8,0.7,7.7,2.2
	c1.9,1.5,2.9,3.4,2.9,5.9s-0.8,4.5-2.3,6.1c-1.5,1.6-3.5,2.6-5.8,2.8c1.1,0.5,2.4,1.8,4,4.1c0,0,0.6,0.8,1.8,2.3
	c1.2,1.5,2.2,2.7,3,3.6c0.8,0.8,1.4,1.5,1.9,1.9c1.3,1.2,2.8,1.8,4.4,1.8V38h-1.6c-2.7,0-4.9-0.5-6.4-1.6c-1.2-0.8-2.3-1.8-3.2-3
	c-0.2-0.3-1.1-1.5-2.7-3.6c-1.5-2.2-2.3-3.3-2.4-3.5c-1.9-2.3-3.6-3.5-5.3-3.5v-0.5c4.1,0,6.5-0.2,7.3-0.6c1.1-0.6,1.9-1.2,2.3-1.9
	c0.9-1.4,1.3-2.9,1.3-4.6c0-2.1-0.6-3.7-1.9-4.9s-2.9-1.8-5-1.9C247,8.4,246,8.4,244.8,8.4z M268.4,37.5c0.8,0,1.5-0.3,2.1-0.8
	c0.6-0.6,0.9-1.2,0.9-2V10c0-0.8-0.3-1.4-0.9-1.9c-0.6-0.5-1.3-0.8-2.1-0.8h-0.7V6.8h15.2c1.4,0,2.7-0.1,3.7-0.3
	c1.1-0.2,1.8-0.4,2.1-0.5v5.9l-0.6-0.1v-0.8c0-0.7-0.2-1.4-0.7-1.9c-0.5-0.5-1.1-0.8-1.9-0.8h-10.8v13.2h8.9c0.7,0,1.2-0.2,1.6-0.6
	c0.4-0.4,0.6-0.9,0.6-1.6v-0.7h0.6V26h-0.6v-0.7c0-1-0.4-1.6-1.1-2c-0.3-0.1-0.6-0.2-0.9-0.2h-9v13.2h8.2c1.6,0,2.9-0.3,4-0.8
	c1.1-0.6,1.9-1.2,2.5-2c0.6-0.8,1.2-1.8,1.8-3h0.5l-2.9,7.4h-21.1v-0.5H268.4z"/>
</svg>
